<svg xmlns="http://www.w3.org/2000/svg" xmlns:xlink="http://www.w3.org/1999/xlink" width="1080" zoomAndPan="magnify" viewBox="0 0 810 809.999993" height="1080" preserveAspectRatio="xMidYMid meet" version="1.0"><defs><clipPath id="dd6d94fead"><path d="M 242.832031 388 L 370 388 L 370 463 L 242.832031 463 Z M 242.832031 388 " clip-rule="nonzero"/></clipPath><clipPath id="2fc15aadfa"><path d="M 242.832031 352 L 502 352 L 502 426 L 242.832031 426 Z M 242.832031 352 " clip-rule="nonzero"/></clipPath><clipPath id="d7f4691652"><path d="M 474 207 L 566.832031 207 L 566.832031 287 L 474 287 Z M 474 207 " clip-rule="nonzero"/></clipPath></defs><path fill="#6f4323" d="M 369.695312 602.9375 L 249.609375 566.578125 L 249.609375 399.941406 L 369.695312 436.300781 L 369.695312 602.9375 " fill-opacity="1" fill-rule="nonzero"/><path fill="#502f18" d="M 369.695312 602.9375 L 494.789062 566.578125 L 494.789062 399.941406 L 369.695312 436.300781 L 369.695312 602.9375 " fill-opacity="1" fill-rule="nonzero"/><g clip-path="url(#dd6d94fead)"><path fill="#ab1e24" d="M 369.558594 462.558594 L 242.855469 426.203125 L 242.855469 388.832031 L 369.558594 425.191406 L 369.558594 462.558594 " fill-opacity="1" fill-rule="nonzero"/></g><g clip-path="url(#2fc15aadfa)"><path fill="#b42026" d="M 501.546875 388.832031 L 372.199219 352.476562 L 242.855469 388.832031 L 369.558594 425.191406 L 501.546875 388.832031 " fill-opacity="1" fill-rule="nonzero"/></g><path fill="#300505" d="M 421.738281 393.15625 L 354.675781 374.300781 L 331.628906 380.53125 L 397.324219 399.382812 L 421.738281 393.15625 " fill-opacity="1" fill-rule="nonzero"/><path fill="#510c0d" d="M 354.675781 379.019531 L 412.945312 395.398438 L 421.738281 393.15625 L 354.675781 374.300781 L 331.628906 380.53125 L 340.085938 382.960938 L 354.675781 379.019531 " fill-opacity="1" fill-rule="nonzero"/><path fill="#8f181d" d="M 369.558594 462.558594 L 501.546875 426.203125 L 501.546875 388.832031 L 369.558594 425.191406 L 369.558594 462.558594 " fill-opacity="1" fill-rule="nonzero"/><path fill="#f9aa78" d="M 419.910156 268.882812 L 433.160156 272.714844 C 433.160156 272.714844 426.175781 299.5625 422.503906 309.652344 C 418.832031 319.734375 406.386719 315.753906 409.253906 305.824219 C 412.117188 295.886719 419.910156 268.882812 419.910156 268.882812 " fill-opacity="1" fill-rule="nonzero"/><path fill="#351f17" d="M 419.910156 268.882812 L 419.667969 269.722656 L 432.917969 273.550781 L 433.160156 272.714844 L 432.316406 272.492188 C 432.316406 272.492188 432.203125 272.914062 432.007812 273.664062 C 431.3125 276.296875 429.53125 283.03125 427.519531 290.203125 C 425.511719 297.371094 423.269531 304.992188 421.683594 309.351562 C 420.984375 311.265625 419.976562 312.582031 418.855469 313.421875 C 417.742188 314.265625 416.5 314.644531 415.304688 314.644531 C 413.851562 314.644531 412.453125 314.082031 411.417969 313.0625 C 410.386719 312.035156 409.703125 310.566406 409.695312 308.65625 C 409.695312 307.867188 409.816406 307 410.089844 306.0625 C 412.953125 296.132812 420.746094 269.125 420.746094 269.125 L 419.910156 268.882812 L 419.667969 269.722656 L 419.910156 268.882812 L 419.070312 268.640625 C 419.066406 268.644531 418.582031 270.328125 417.808594 273.015625 C 415.484375 281.078125 410.5625 298.132812 408.414062 305.578125 C 408.097656 306.65625 407.953125 307.6875 407.953125 308.65625 C 407.949219 310.996094 408.824219 312.957031 410.191406 314.304688 C 411.558594 315.652344 413.398438 316.398438 415.304688 316.398438 C 416.875 316.398438 418.496094 315.886719 419.910156 314.820312 C 421.324219 313.753906 422.527344 312.132812 423.324219 309.949219 C 425.175781 304.851562 427.839844 295.617188 430.050781 287.632812 C 432.253906 279.652344 434.003906 272.9375 434.003906 272.933594 L 434.21875 272.109375 L 419.3125 267.800781 L 419.070312 268.640625 L 419.910156 268.882812 " fill-opacity="1" fill-rule="nonzero"/><path fill="#f9aa78" d="M 410.03125 266.007812 L 425.34375 270.4375 C 425.34375 270.4375 417.269531 301.46875 413.027344 313.128906 C 408.785156 324.785156 394.402344 320.179688 397.710938 308.703125 C 401.027344 297.222656 410.03125 266.007812 410.03125 266.007812 " fill-opacity="1" fill-rule="nonzero"/><path fill="#351f17" d="M 410.03125 266.007812 L 409.75 266.976562 L 425.0625 271.402344 L 425.34375 270.4375 L 424.367188 270.179688 C 424.367188 270.179688 424.242188 270.664062 424.015625 271.535156 C 423.214844 274.582031 421.152344 282.359375 418.828125 290.648438 C 416.507812 298.933594 413.914062 307.742188 412.082031 312.785156 C 411.277344 314.996094 410.109375 316.511719 408.816406 317.488281 C 407.523438 318.460938 406.097656 318.902344 404.707031 318.902344 C 403.023438 318.902344 401.410156 318.25 400.214844 317.070312 C 399.027344 315.886719 398.234375 314.191406 398.230469 311.980469 C 398.230469 311.066406 398.367188 310.066406 398.683594 308.984375 C 401.992188 297.503906 411 266.289062 411 266.289062 L 410.03125 266.007812 L 409.75 266.976562 L 410.03125 266.007812 L 409.0625 265.726562 C 409.058594 265.730469 408.5 267.675781 407.605469 270.785156 C 404.914062 280.101562 399.230469 299.8125 396.742188 308.417969 C 396.382812 309.667969 396.210938 310.863281 396.210938 311.980469 C 396.207031 314.683594 397.21875 316.953125 398.796875 318.507812 C 400.378906 320.066406 402.503906 320.921875 404.707031 320.921875 C 406.523438 320.921875 408.394531 320.335938 410.03125 319.101562 C 411.667969 317.871094 413.058594 315.996094 413.976562 313.472656 C 416.121094 307.578125 419.195312 296.90625 421.75 287.675781 C 424.300781 278.453125 426.320312 270.691406 426.320312 270.6875 L 426.566406 269.734375 L 409.339844 264.757812 L 409.0625 265.726562 L 410.03125 266.007812 " fill-opacity="1" fill-rule="nonzero"/><path fill="#f9aa78" d="M 387.300781 267.582031 L 406.875 269.625 C 406.875 269.625 404.585938 301.625 402.265625 313.824219 C 399.945312 326.03125 381.449219 323.664062 382.691406 311.78125 C 383.929688 299.894531 387.300781 267.582031 387.300781 267.582031 " fill-opacity="1" fill-rule="nonzero"/><path fill="#351f17" d="M 387.300781 267.582031 L 387.1875 268.699219 L 406.757812 270.742188 L 406.875 269.625 L 405.757812 269.546875 C 405.757812 269.546875 405.71875 270.046875 405.652344 270.941406 C 405.421875 274.082031 404.804688 282.105469 403.992188 290.671875 C 403.179688 299.234375 402.167969 308.359375 401.164062 313.613281 C 400.679688 316.136719 399.484375 317.878906 397.929688 319.046875 C 396.371094 320.214844 394.414062 320.789062 392.445312 320.785156 C 390.222656 320.789062 388.011719 320.050781 386.40625 318.710938 C 384.804688 317.359375 383.757812 315.46875 383.75 312.902344 C 383.75 312.574219 383.765625 312.242188 383.804688 311.902344 L 383.804688 311.894531 C 384.425781 305.953125 385.578125 294.902344 386.578125 285.339844 C 387.074219 280.558594 387.535156 276.148438 387.871094 272.933594 C 388.207031 269.71875 388.417969 267.703125 388.417969 267.699219 L 387.300781 267.582031 L 387.1875 268.699219 L 387.300781 267.582031 L 386.1875 267.464844 C 386.1875 267.464844 382.8125 299.777344 381.574219 311.664062 L 381.578125 311.65625 C 381.53125 312.082031 381.507812 312.496094 381.507812 312.902344 C 381.5 316.113281 382.902344 318.722656 384.972656 320.4375 C 387.046875 322.15625 389.738281 323.03125 392.445312 323.03125 C 394.84375 323.03125 397.273438 322.335938 399.269531 320.847656 C 401.269531 319.363281 402.796875 317.058594 403.367188 314.03125 C 404.546875 307.839844 405.695312 296.796875 406.554688 287.25 C 407.421875 277.714844 407.992188 269.710938 407.992188 269.707031 L 408.070312 268.621094 L 386.304688 266.347656 L 386.1875 267.464844 L 387.300781 267.582031 " fill-opacity="1" fill-rule="nonzero"/><path fill="#f9aa78" d="M 373.984375 262.894531 L 393.558594 264.941406 C 393.558594 264.941406 391.269531 296.9375 388.953125 309.140625 C 386.625 321.339844 368.136719 318.976562 369.375 307.089844 C 370.613281 295.210938 373.984375 262.894531 373.984375 262.894531 " fill-opacity="1" fill-rule="nonzero"/><path fill="#351f17" d="M 373.984375 262.894531 L 373.867188 264.015625 L 393.441406 266.058594 L 393.558594 264.941406 L 392.441406 264.859375 C 392.441406 264.863281 392.402344 265.359375 392.335938 266.253906 C 392.101562 269.394531 391.484375 277.421875 390.671875 285.988281 C 389.859375 294.550781 388.847656 303.675781 387.847656 308.929688 C 387.363281 311.453125 386.167969 313.195312 384.609375 314.363281 C 383.050781 315.53125 381.097656 316.101562 379.128906 316.101562 C 376.910156 316.105469 374.695312 315.363281 373.09375 314.023438 C 371.484375 312.675781 370.445312 310.785156 370.433594 308.214844 C 370.433594 307.890625 370.453125 307.554688 370.488281 307.214844 L 370.488281 307.210938 C 371.726562 295.328125 375.097656 263.011719 375.097656 263.011719 L 373.984375 262.894531 L 373.867188 264.015625 L 373.984375 262.894531 L 372.867188 262.777344 C 372.867188 262.785156 372.65625 264.796875 372.320312 268.011719 C 371.316406 277.660156 369.1875 298.066406 368.261719 306.976562 L 368.261719 306.972656 C 368.214844 307.394531 368.195312 307.808594 368.195312 308.214844 C 368.183594 311.425781 369.585938 314.039062 371.65625 315.75 C 373.726562 317.46875 376.421875 318.34375 379.128906 318.347656 C 381.523438 318.347656 383.953125 317.652344 385.953125 316.160156 C 387.949219 314.675781 389.480469 312.375 390.050781 309.351562 C 391.226562 303.15625 392.375 292.105469 393.242188 282.566406 C 394.101562 273.027344 394.675781 265.027344 394.675781 265.023438 L 394.753906 263.933594 L 372.984375 261.660156 L 372.867188 262.777344 L 373.984375 262.894531 " fill-opacity="1" fill-rule="nonzero"/><path fill="#f9aa78" d="M 412.941406 234.609375 C 405.738281 237.265625 382.507812 247.601562 373.160156 257.164062 C 370.242188 260.144531 370.867188 274.261719 371.976562 282.128906 C 359.234375 292.691406 376.371094 304.070312 386.667969 297.5625 C 396.960938 291.050781 404.257812 283.085938 404.257812 283.085938 C 404.257812 283.085938 422.621094 296.710938 440.730469 295.28125 C 451.539062 294.425781 466.695312 285 466.695312 285 L 499.96875 280.605469 L 491.328125 234.492188 C 491.328125 234.492188 469.683594 250.5 454.597656 248.492188 C 442.242188 246.84375 418.347656 232.617188 412.941406 234.609375 " fill-opacity="1" fill-rule="nonzero"/><path fill="#ffffff" d="M 433.578125 294.613281 C 433.480469 294.601562 433.375 294.574219 433.273438 294.558594 C 431.886719 294.394531 430.496094 294.15625 429.101562 293.890625 C 425.753906 293.242188 422.359375 292.789062 419.167969 291.546875 C 414.082031 289.574219 407.941406 287.324219 403.859375 283.363281 C 402.722656 284.246094 401.578125 285.125 400.546875 286.121094 C 397.816406 288.753906 395.214844 291.578125 392.109375 293.777344 C 388.976562 296.003906 384.957031 298.945312 380.882812 299.902344 C 380.339844 300.074219 379.8125 300.183594 379.316406 300.214844 C 379.09375 300.222656 378.855469 300.214844 378.625 300.210938 C 378.226562 300.222656 377.828125 300.21875 377.429688 300.175781 C 377.160156 300.148438 376.929688 300.078125 376.738281 299.960938 C 374.910156 299.554688 373.113281 298.679688 371.765625 297.53125 C 370.582031 296.53125 369.714844 295.460938 369.121094 294.351562 C 367.316406 291.316406 367.535156 287.140625 370.175781 283.90625 C 371.25 282.585938 372.445312 281.371094 373.714844 280.238281 C 375.304688 278.824219 377.746094 277.5625 378.933594 275.828125 C 380.617188 273.359375 382.722656 271.292969 385.3125 269.914062 L 366.121094 260.984375 L 321.421875 357.25 L 389.730469 389.035156 L 433.578125 294.613281 " fill-opacity="1" fill-rule="nonzero"/><path fill="#a7a5a6" d="M 384.359375 298.65625 C 383.46875 299.078125 382.558594 299.429688 381.644531 299.699219 L 380.011719 303.222656 L 362.933594 295.273438 L 370.875 278.179688 L 374.289062 279.765625 C 374.867188 279.308594 375.5 278.863281 376.136719 278.402344 L 369.898438 275.492188 L 360.253906 296.25 L 380.996094 305.902344 L 384.359375 298.65625 " fill-opacity="1" fill-rule="nonzero"/><path fill="#d3d2d2" d="M 393.253906 292.925781 L 418.421875 304.636719 L 420.261719 300.664062 L 396.832031 289.761719 C 395.683594 290.867188 394.503906 291.941406 393.253906 292.925781 " fill-opacity="1" fill-rule="nonzero"/><path fill="#d3d2d2" d="M 415.394531 311.152344 L 389.574219 299.140625 L 391.414062 295.171875 L 417.234375 307.183594 L 415.394531 311.152344 " fill-opacity="1" fill-rule="nonzero"/><path fill="#d3d2d2" d="M 412.367188 317.675781 L 386.542969 305.660156 L 388.386719 301.691406 L 414.207031 313.707031 L 412.367188 317.675781 " fill-opacity="1" fill-rule="nonzero"/><path fill="#a7a5a6" d="M 377.964844 312.417969 L 357.226562 302.769531 L 347.589844 323.527344 L 368.324219 333.175781 Z M 375.289062 313.398438 L 367.347656 330.492188 L 350.269531 322.542969 L 358.210938 305.449219 L 375.289062 313.398438 " fill-opacity="1" fill-rule="nonzero"/><path fill="#b42026" d="M 358.277344 325.667969 C 360.585938 318.039062 355.777344 312.851562 355.777344 312.851562 L 360.246094 310.621094 C 360.246094 310.621094 362.523438 317.171875 361.378906 319.71875 C 370.074219 311.367188 379.125 307.261719 379.125 307.261719 L 380.464844 315.558594 C 380.464844 315.558594 370.648438 312.035156 358.277344 325.667969 " fill-opacity="1" fill-rule="nonzero"/><path fill="#d3d2d2" d="M 405.757812 331.902344 L 379.9375 319.894531 L 381.777344 315.921875 L 407.601562 327.9375 L 405.757812 331.902344 " fill-opacity="1" fill-rule="nonzero"/><path fill="#d3d2d2" d="M 402.726562 338.425781 L 376.910156 326.410156 L 378.753906 322.441406 L 404.570312 334.460938 L 402.726562 338.425781 " fill-opacity="1" fill-rule="nonzero"/><path fill="#d3d2d2" d="M 399.703125 344.945312 L 373.882812 332.929688 L 375.722656 328.960938 L 401.546875 340.976562 L 399.703125 344.945312 " fill-opacity="1" fill-rule="nonzero"/><path fill="#a7a5a6" d="M 365.304688 339.691406 L 344.566406 330.042969 L 334.929688 350.800781 L 355.664062 360.445312 Z M 362.625 340.664062 L 354.683594 357.765625 L 337.605469 349.816406 L 345.546875 332.722656 L 362.625 340.664062 " fill-opacity="1" fill-rule="nonzero"/><path fill="#d3d2d2" d="M 393.089844 359.175781 L 367.269531 347.164062 L 369.117188 343.191406 L 394.9375 355.210938 L 393.089844 359.175781 " fill-opacity="1" fill-rule="nonzero"/><path fill="#d3d2d2" d="M 390.066406 365.695312 L 364.246094 353.683594 L 366.085938 349.714844 L 391.910156 361.730469 L 390.066406 365.695312 " fill-opacity="1" fill-rule="nonzero"/><path fill="#d3d2d2" d="M 387.035156 372.21875 L 361.214844 360.199219 L 363.0625 356.234375 L 388.878906 368.25 L 387.035156 372.21875 " fill-opacity="1" fill-rule="nonzero"/><path fill="#351f17" d="M 413.902344 255.046875 C 413.890625 255.046875 409.464844 256.019531 404.425781 257.539062 C 401.902344 258.296875 399.230469 259.195312 396.859375 260.179688 C 394.488281 261.179688 392.429688 262.238281 391.070312 263.460938 C 386.320312 267.773438 380.535156 273.054688 370.179688 282.398438 C 367.546875 284.761719 366.335938 287.449219 366.34375 290.023438 C 366.347656 293.089844 367.996094 295.859375 370.402344 297.832031 C 372.820312 299.816406 376.035156 301.058594 379.394531 301.058594 C 381.714844 301.0625 384.105469 300.453125 386.296875 299.074219 C 396.722656 292.476562 404.953125 283.808594 404.984375 283.777344 L 404.257812 283.085938 L 403.65625 283.894531 C 403.6875 283.917969 407.878906 287.027344 414.25 290.140625 C 420.625 293.253906 429.1875 296.386719 438.023438 296.398438 C 438.945312 296.398438 439.875 296.359375 440.804688 296.289062 C 446.457031 295.832031 453.003906 293.21875 458.199219 290.734375 C 463.394531 288.246094 467.207031 285.871094 467.226562 285.859375 L 466.695312 285 L 466.828125 286.003906 L 500.101562 281.601562 L 499.835938 279.601562 L 466.347656 284.03125 L 466.160156 284.148438 C 466.160156 284.148438 466.109375 284.179688 466 284.246094 C 465.167969 284.753906 461.28125 287.078125 456.359375 289.371094 C 451.449219 291.660156 445.484375 293.898438 440.644531 294.273438 C 439.769531 294.339844 438.898438 294.375 438.023438 294.375 C 429.671875 294.378906 421.351562 291.363281 415.136719 288.324219 C 412.03125 286.808594 409.453125 285.289062 407.652344 284.152344 C 406.753906 283.582031 406.050781 283.109375 405.574219 282.78125 C 405.335938 282.617188 405.15625 282.488281 405.035156 282.398438 L 404.898438 282.300781 L 404.855469 282.269531 L 404.140625 281.742188 L 403.527344 282.386719 L 403.433594 282.480469 C 402.527344 283.421875 394.75 291.339844 385.21875 297.367188 C 383.371094 298.535156 381.371094 299.039062 379.394531 299.039062 C 376.539062 299.042969 373.734375 297.960938 371.683594 296.273438 C 369.625 294.578125 368.359375 292.335938 368.363281 290.023438 C 368.367188 288.078125 369.226562 285.988281 371.527344 283.902344 C 381.886719 274.554688 387.679688 269.261719 392.425781 264.960938 C 393.441406 264.027344 395.367188 262.988281 397.632812 262.046875 C 401.042969 260.625 405.234375 259.359375 408.558594 258.453125 C 410.21875 258.007812 411.667969 257.644531 412.699219 257.398438 C 413.214844 257.273438 413.625 257.175781 413.90625 257.113281 C 414.191406 257.046875 414.339844 257.015625 414.339844 257.015625 L 413.902344 255.046875 " fill-opacity="1" fill-rule="nonzero"/><path fill="#351f17" d="M 370 262.785156 C 370 262.785156 371.054688 258.398438 372.335938 256.578125 C 377.460938 249.328125 409.210938 233.242188 414.601562 233.277344 C 416.625 233.296875 421.027344 235.046875 428.644531 238.140625 C 438.875 242.296875 452.894531 247.988281 459.929688 247.515625 C 471.1875 246.746094 491.40625 232.714844 491.609375 232.574219 L 492.761719 234.230469 C 491.917969 234.820312 471.882812 248.726562 460.066406 249.527344 C 452.570312 250.039062 438.878906 244.480469 427.886719 240.011719 C 421.9375 237.597656 416.324219 235.3125 414.585938 235.300781 C 409.761719 235.265625 378.832031 250.886719 373.984375 257.746094 C 372.914062 259.261719 371.945312 263.695312 371.945312 263.695312 L 370 262.785156 " fill-opacity="1" fill-rule="nonzero"/><g clip-path="url(#d7f4691652)"><path fill="#1f4c7f" d="M 566.804688 207.066406 L 527.734375 207.066406 L 474.648438 239.339844 L 483.375 286.757812 L 566.804688 274.671875 L 566.804688 207.066406 " fill-opacity="1" fill-rule="nonzero"/></g></svg>